<mxfile host="app.diagrams.net" modified="2023-09-22T02:22:37.106Z" agent="Mozilla/5.0 (X11; Linux x86_64) AppleWebKit/537.36 (KHTML, like Gecko) Chrome/117.0.0.0 Safari/537.36" version="21.8.0" etag="8Kho3UxcGL9i9ypneRU5" type="github">
  <diagram name="Страница — 1" id="1dxe6cCFY_moW0SBMcwI">
    <mxGraphModel>
      <root>
        <mxCell id="0" />
        <mxCell id="1" parent="0" />
      </root>
    </mxGraphModel>
  </diagram>
</mxfile>
